<svg xmlns="http://www.w3.org/2000/svg" width="103.9" height="20.75" viewBox="0 0 103.9 20.75"><defs><style>.cls-1{fill:#60aec8;}.cls-2{fill:#fff;}.cls-3{fill:none;}.cls-4{fill:#324c93;}</style></defs><title>logo-on-dark</title><g id="Layer_2" data-name="Layer 2"><g id="Layer_1-2" data-name="Layer 1"><rect class="cls-1" width="15.14" height="20.75" rx="1" ry="1"/><path class="cls-2" d="M16.91,10.76a6,6,0,0,1,1.4-4.1,4.87,4.87,0,0,1,3.87-1.6,4.92,4.92,0,0,1,3.89,1.59,6,6,0,0,1,1.41,4.1V11a6,6,0,0,1-1.4,4.11,4.9,4.9,0,0,1-3.87,1.59,4.91,4.91,0,0,1-3.88-1.59A6,6,0,0,1,16.91,11Zm3,.21a4.85,4.85,0,0,0,.54,2.45,1.86,1.86,0,0,0,1.74.92,1.84,1.84,0,0,0,1.71-.93A4.82,4.82,0,0,0,24.44,11v-.22a4.77,4.77,0,0,0-.55-2.43,1.85,1.85,0,0,0-1.73-.94,1.83,1.83,0,0,0-1.71.94,4.82,4.82,0,0,0-.54,2.42Z"/><path class="cls-2" d="M32.09,5.26l.13,1.6a4.09,4.09,0,0,1,1.38-1.33,3.57,3.57,0,0,1,1.83-.48,3.37,3.37,0,0,1,2.65,1.06,4.92,4.92,0,0,1,1,3.34v7H36v-7a2.27,2.27,0,0,0-.45-1.6,1.83,1.83,0,0,0-1.38-.47,2.32,2.32,0,0,0-1.08.24,2.21,2.21,0,0,0-.8.69v8.14h-3V5.26Z"/><path class="cls-2" d="M46,14.34a1.79,1.79,0,0,0,1.29-.47,1.65,1.65,0,0,0,.49-1.25h2.74l0,.06a3.48,3.48,0,0,1-1.28,2.84,5.38,5.38,0,0,1-7.13-.44A6,6,0,0,1,40.76,11v-.31a6.07,6.07,0,0,1,1.35-4.06A4.77,4.77,0,0,1,46,5.06,4.7,4.7,0,0,1,49.3,6.24a3.92,3.92,0,0,1,1.23,3.1l0,.06H47.75A2.19,2.19,0,0,0,47.27,8,1.61,1.61,0,0,0,46,7.38a1.75,1.75,0,0,0-1.69.93,5.11,5.11,0,0,0-.49,2.4V11a5.09,5.09,0,0,0,.49,2.41A1.77,1.77,0,0,0,46,14.34Z"/><path class="cls-2" d="M59.07,14.84a3.76,3.76,0,0,1-1.31,1.35,3.87,3.87,0,0,1-4.6-.66,5.22,5.22,0,0,1-1-3.52V5.26h3v6.79a2.9,2.9,0,0,0,.41,1.76,1.45,1.45,0,0,0,1.22.53A3,3,0,0,0,58,14.11a2.09,2.09,0,0,0,.85-.69V5.26h3V16.45H59.34Z"/><path class="cls-2" d="M70.07,7.86,69,7.83a2,2,0,0,0-1.11.28,1.77,1.77,0,0,0-.66.79v7.56h-3V5.26H67l.13,1.65a3.53,3.53,0,0,1,1-1.37A2.38,2.38,0,0,1,70,5.09l.39.09Z"/><path class="cls-2" d="M74.36,5.26l.13,1.6a4.09,4.09,0,0,1,1.38-1.33,3.57,3.57,0,0,1,1.83-.48,3.37,3.37,0,0,1,2.65,1.06,4.92,4.92,0,0,1,1,3.34v7h-3v-7a2.27,2.27,0,0,0-.45-1.6,1.83,1.83,0,0,0-1.38-.47,2.32,2.32,0,0,0-1.08.24,2.21,2.21,0,0,0-.8.69v8.14h-3V5.26Z"/><path class="cls-2" d="M90.12,16.45a6.32,6.32,0,0,1-.28-.81,5.59,5.59,0,0,1-.17-.87,4.16,4.16,0,0,1-1.23,1.35,3.06,3.06,0,0,1-1.81.54,3.78,3.78,0,0,1-2.71-.9,3.24,3.24,0,0,1-1-2.47,3,3,0,0,1,1.27-2.55,6.33,6.33,0,0,1,3.7-.9h1.69V9a1.74,1.74,0,0,0-.42-1.25,2,2,0,0,0-2.38-.09,1.26,1.26,0,0,0-.4,1H83.49V8.53a2.84,2.84,0,0,1,1.23-2.45,5.36,5.36,0,0,1,3.42-1,5,5,0,0,1,3.26,1A3.53,3.53,0,0,1,92.64,9V13.6a8.73,8.73,0,0,0,.12,1.48,7.41,7.41,0,0,0,.38,1.38Zm-2.76-2A2.59,2.59,0,0,0,88.78,14a2,2,0,0,0,.84-.91V11.55H87.93a2,2,0,0,0-1.46.48A1.56,1.56,0,0,0,86,13.2a1.16,1.16,0,0,0,.37.9A1.44,1.44,0,0,0,87.36,14.44Z"/><path class="cls-2" d="M101,13.37a1.05,1.05,0,0,0-.48-.86,4.9,4.9,0,0,0-1.78-.64,7.18,7.18,0,0,1-3-1.19,2.59,2.59,0,0,1-1-2.16,3.08,3.08,0,0,1,1.21-2.46,4.93,4.93,0,0,1,3.25-1,5.34,5.34,0,0,1,3.41,1,3,3,0,0,1,1.21,2.53l0,.06h-2.92a1.47,1.47,0,0,0-.43-1.1A2.06,2.06,0,0,0,98,7.49a1.13,1.13,0,0,0-.42.89,1,1,0,0,0,.44.85,4.8,4.8,0,0,0,1.78.59A7.23,7.23,0,0,1,102.9,11a2.67,2.67,0,0,1,1,2.21,2.94,2.94,0,0,1-1.29,2.47,5.6,5.6,0,0,1-3.41,1,5.19,5.19,0,0,1-3.53-1.13A3.16,3.16,0,0,1,94.43,13l0-.06h2.76a1.57,1.57,0,0,0,.59,1.3,2.43,2.43,0,0,0,1.46.4,2.1,2.1,0,0,0,1.28-.33A1.07,1.07,0,0,0,101,13.37Z"/><path class="cls-3" d="M12.52,8a3.29,3.29,0,0,0-.71-2.28,2.85,2.85,0,0,0-2.22-.79A2.52,2.52,0,0,0,7.44,6a4.66,4.66,0,0,0-.8,2.8v3a4.53,4.53,0,0,0,.84,2.83,2.7,2.7,0,0,0,2.26,1.1A2.67,2.67,0,0,0,11.84,15a3.3,3.3,0,0,0,.68-2.26h2.63V8Z"/><path class="cls-4" d="M11.84,15a2.67,2.67,0,0,1-2.09.76,2.7,2.7,0,0,1-2.26-1.1,4.53,4.53,0,0,1-.84-2.83v-3A4.66,4.66,0,0,1,7.44,6a2.52,2.52,0,0,1,2.15-1.1,2.85,2.85,0,0,1,2.22.79A3.29,3.29,0,0,1,12.52,8h2.62V5.77A4.47,4.47,0,0,0,14,4,6.24,6.24,0,0,0,9.59,2.59a5.64,5.64,0,0,0-4.3,1.76,6.3,6.3,0,0,0-1.65,4.5v3a6.19,6.19,0,0,0,1.7,4.5,5.88,5.88,0,0,0,4.42,1.75A6,6,0,0,0,14,16.65a4.47,4.47,0,0,0,1.16-1.76V12.74H12.51A3.3,3.3,0,0,1,11.84,15Z"/></g></g></svg>