<svg xmlns="http://www.w3.org/2000/svg" width="167.5" height="229.58" viewBox="0 0 167.5 229.58"><defs><style>.cls-1{fill:#60aec8;}.cls-2{fill:none;}.cls-3{fill:#324c93;}</style></defs><title>logo</title><g id="Layer_2" data-name="Layer 2"><g id="Layer_1-2" data-name="Layer 1"><rect class="cls-1" width="167.5" height="229.58" rx="9" ry="9"/><path class="cls-2" d="M138.55,88.39q0-16.47-7.89-25.22t-24.59-8.75q-15,0-23.79,12.17t-8.81,31v33.25q0,19.09,9.27,31.26t25.05,12.17q15.67,0,23.16-8.41t7.49-25H167.5V88.39Z"/><path class="cls-3" d="M130.94,165.89q-7.49,8.41-23.16,8.41T82.73,162.13Q73.47,150,73.47,130.87V97.62q0-18.85,8.81-31t23.79-12.17q16.7,0,24.59,8.75t7.89,25.22H167.5V63.87a49.45,49.45,0,0,0-13.16-19.35q-17.39-15.84-48.27-15.84-29.28,0-47.58,19.45T40.18,97.88v33.06q0,30.43,18.76,49.76T107.78,200q30,0,46.84-15.79a49.45,49.45,0,0,0,12.88-19.47V140.89H138.44Q138.44,157.48,130.94,165.89Z"/></g></g></svg>